<svg width="340" height="348" viewBox="0 0 340 348" fill="none" xmlns="http://www.w3.org/2000/svg">
<path d="M0 23C0 10.2975 10.2975 0 23 0H317C329.703 0 340 10.2975 340 23V232.5C340 245.203 329.703 255.5 317 255.5H205.5C192.797 255.5 182.5 265.797 182.5 278.5V325C182.5 337.703 172.203 348 159.5 348H23C10.2975 348 0 337.703 0 325V23Z" fill="#99242E"/>
<path d="M0 23C0 10.2975 10.2975 0 23 0H317C329.703 0 340 10.2975 340 23V232.5C340 245.203 329.703 255.5 317 255.5H182.5H50.5H0V23Z" fill="#DD0431"/>
<path d="M50.5 255.5H0V291C0 284.5 19 255.5 50.5 255.5Z" fill="#DD0431"/>
<path d="M58.5667 130.326C58.5667 133.604 57.7728 136.395 56.1851 138.7C54.5973 140.954 52.3181 142.695 49.3475 143.924C46.4281 145.154 42.971 145.768 38.976 145.768C36.9273 145.768 34.9555 145.666 33.0604 145.461C31.2166 145.256 29.5264 144.974 27.9899 144.616C26.4534 144.206 25.0961 143.72 23.9181 143.156V136.549C25.762 137.369 28.0411 138.111 30.7556 138.777C33.5214 139.443 36.3639 139.776 39.2833 139.776C41.9978 139.776 44.277 139.417 46.1208 138.7C47.9647 137.983 49.3475 136.959 50.2695 135.627C51.1914 134.296 51.6523 132.733 51.6523 130.941C51.6523 129.148 51.2682 127.637 50.4999 126.408C49.7317 125.179 48.4 124.052 46.505 123.028C44.6612 121.952 42.0747 120.825 38.7455 119.647C36.3896 118.777 34.3152 117.855 32.5226 116.882C30.7813 115.857 29.3216 114.705 28.1436 113.425C26.9656 112.144 26.0693 110.684 25.4546 109.045C24.8913 107.406 24.6096 105.511 24.6096 103.36C24.6096 100.441 25.3522 97.9569 26.8375 95.9082C28.3228 93.8083 30.3715 92.1949 32.9836 91.0681C35.6469 89.9414 38.6943 89.378 42.1259 89.378C45.1477 89.378 47.9135 89.6597 50.4231 90.223C52.9328 90.7864 55.2119 91.5291 57.2606 92.451L55.1095 98.3666C53.2144 97.5471 51.1401 96.8557 48.8866 96.2923C46.6842 95.7289 44.3795 95.4472 41.9722 95.4472C39.6675 95.4472 37.7468 95.7801 36.2103 96.446C34.6738 97.1118 33.5214 98.0593 32.7531 99.2885C31.9849 100.467 31.6007 101.849 31.6007 103.437C31.6007 105.281 31.9849 106.817 32.7531 108.047C33.5214 109.276 34.7762 110.377 36.5176 111.35C38.259 112.323 40.615 113.373 43.5856 114.5C46.8123 115.678 49.5268 116.959 51.7291 118.341C53.9827 119.673 55.6729 121.286 56.7997 123.181C57.9777 125.076 58.5667 127.458 58.5667 130.326ZM76.5307 145H69.6164V90.1462H100.27V96.2155H76.5307V115.652H98.8103V121.722H76.5307V145ZM151.171 125.64C151.171 129.43 150.403 132.861 148.867 135.935C147.33 138.956 144.974 141.364 141.799 143.156C138.674 144.898 134.679 145.768 129.814 145.768C123.002 145.768 117.803 143.924 114.218 140.237C110.684 136.498 108.917 131.581 108.917 125.486V90.1462H115.831V125.717C115.831 130.173 117.009 133.63 119.365 136.088C121.773 138.547 125.383 139.776 130.198 139.776C133.527 139.776 136.216 139.187 138.265 138.009C140.365 136.78 141.901 135.115 142.874 133.015C143.847 130.864 144.334 128.406 144.334 125.64V90.1462H151.171V125.64Z" fill="white"/>
<path d="M25.2143 175.647H35.0426V181.499C36.318 179.498 38.0436 177.873 40.2193 176.622C42.3951 175.372 44.8084 174.747 47.4593 174.747C52.0859 174.747 56.0122 176.56 59.2383 180.186C62.4644 183.812 64.0774 188.864 64.0774 195.341C64.0774 201.993 62.4519 207.17 59.2008 210.871C55.9497 214.548 52.0108 216.386 47.3843 216.386C45.1835 216.386 43.1828 215.948 41.3822 215.073C39.6066 214.198 37.731 212.697 35.7553 210.571V230.641H25.2143V175.647ZM35.6428 194.891C35.6428 199.368 36.5306 202.681 38.3062 204.832C40.0818 206.958 42.245 208.02 44.7959 208.02C47.2467 208.02 49.2849 207.045 50.9105 205.094C52.536 203.119 53.3488 199.893 53.3488 195.416C53.3488 191.24 52.511 188.139 50.8354 186.113C49.1599 184.087 47.0842 183.074 44.6083 183.074C42.0325 183.074 39.8942 184.075 38.1937 186.076C36.4931 188.051 35.6428 190.99 35.6428 194.891ZM74.0168 215.485V160.492H84.5579V215.485H74.0168ZM104.813 187.801L95.2475 186.076C96.3228 182.224 98.1735 179.373 100.799 177.523C103.425 175.672 107.327 174.747 112.503 174.747C117.205 174.747 120.706 175.309 123.007 176.435C125.308 177.535 126.921 178.948 127.846 180.674C128.796 182.374 129.271 185.513 129.271 190.089L129.159 202.394C129.159 205.895 129.322 208.483 129.647 210.159C129.997 211.809 130.634 213.585 131.56 215.485H121.131C120.856 214.785 120.519 213.747 120.118 212.372C119.943 211.747 119.818 211.334 119.743 211.134C117.943 212.885 116.017 214.198 113.966 215.073C111.916 215.948 109.727 216.386 107.402 216.386C103.3 216.386 100.062 215.273 97.6858 213.047C95.335 210.821 94.1596 208.008 94.1596 204.607C94.1596 202.356 94.6973 200.355 95.7727 198.605C96.848 196.829 98.3485 195.479 100.274 194.553C102.225 193.603 105.026 192.778 108.677 192.078C113.604 191.152 117.017 190.289 118.918 189.489V188.439C118.918 186.413 118.418 184.975 117.417 184.125C116.417 183.25 114.529 182.812 111.753 182.812C109.877 182.812 108.414 183.187 107.364 183.937C106.314 184.663 105.463 185.95 104.813 187.801ZM118.918 196.354C117.568 196.804 115.429 197.342 112.503 197.967C109.577 198.592 107.664 199.205 106.764 199.805C105.388 200.78 104.701 202.018 104.701 203.519C104.701 204.994 105.251 206.27 106.351 207.345C107.452 208.421 108.852 208.958 110.553 208.958C112.453 208.958 114.266 208.333 115.992 207.083C117.267 206.132 118.105 204.969 118.505 203.594C118.78 202.694 118.918 200.981 118.918 198.455V196.354ZM177.474 215.485H166.933V195.154C166.933 190.852 166.708 188.076 166.258 186.826C165.807 185.55 165.07 184.563 164.044 183.862C163.044 183.162 161.831 182.812 160.406 182.812C158.58 182.812 156.942 183.312 155.491 184.312C154.041 185.313 153.041 186.638 152.49 188.289C151.965 189.939 151.703 192.99 151.703 197.442V215.485H141.162V175.647H150.952V181.499C154.429 176.997 158.805 174.747 164.082 174.747C166.408 174.747 168.533 175.172 170.459 176.022C172.385 176.847 173.835 177.91 174.81 179.211C175.811 180.511 176.498 181.987 176.874 183.637C177.274 185.288 177.474 187.651 177.474 190.727V215.485ZM189.739 215.485V160.492H200.28V215.485H189.739ZM207.669 175.647H218.885L228.413 203.932L237.716 175.647H248.632L234.565 213.985L232.052 220.925C231.126 223.251 230.239 225.026 229.388 226.252C228.563 227.477 227.6 228.465 226.5 229.215C225.425 229.99 224.087 230.591 222.486 231.016C220.911 231.441 219.122 231.653 217.122 231.653C215.096 231.653 213.108 231.441 211.157 231.016L210.219 222.763C211.87 223.088 213.358 223.251 214.683 223.251C217.134 223.251 218.947 222.525 220.123 221.075C221.298 219.649 222.198 217.824 222.824 215.598L207.669 175.647Z" fill="white"/>
</svg>
